<svg width="74" height="75" viewBox="0 0 74 75" fill="none" xmlns="http://www.w3.org/2000/svg">
<circle cx="37" cy="37.7402" r="37" fill="white"/>
<path d="M47.125 50.2404H25.875V25.2404H47.125V27.3237H51.375V18.9904C51.375 16.6987 49.4625 14.8237 47.125 14.8237H25.875C23.5375 14.8237 21.625 16.6987 21.625 18.9904V56.4904C21.625 58.7821 23.5375 60.6571 25.875 60.6571H47.125C49.4625 60.6571 51.375 58.7821 51.375 56.4904V48.1571H47.125V50.2404ZM25.875 18.9904H47.125V21.0737H25.875V18.9904ZM47.125 56.4904H25.875V54.4071H47.125V56.4904ZM54.3075 32.7821L55.625 35.6571L56.9425 32.7821L59.875 31.4904L56.9425 30.1987L55.625 27.3237L54.3075 30.1987L51.375 31.4904L54.3075 32.7821Z" fill="#012478"/>
<path d="M45 29.4067L42.3437 35.1359L36.5 37.7401L42.3437 40.3442L45 46.0734L47.6562 40.3442L53.5 37.7401L47.6562 35.1359L45 29.4067ZM55.625 39.8234L54.3075 42.6984L51.375 43.9901L54.3075 45.2817L55.625 48.1567L56.9425 45.2817L59.875 43.9901L56.9425 42.6984L55.625 39.8234Z" fill="#012478"/>
</svg>
