<svg width="74" height="75" viewBox="0 0 74 75" fill="none" xmlns="http://www.w3.org/2000/svg">
<circle cx="37" cy="37.7402" r="37" fill="white"/>
<path d="M18.375 22.1152C18.375 22.5296 18.5429 22.9271 18.8418 23.2201C19.1407 23.5131 19.5461 23.6777 19.9688 23.6777H55.0312C55.4539 23.6777 55.8593 23.5131 56.1582 23.2201C56.4571 22.9271 56.625 22.5296 56.625 22.1152C56.625 21.7008 56.4571 21.3034 56.1582 21.0104C55.8593 20.7174 55.4539 20.5527 55.0312 20.5527H19.9688C19.5461 20.5527 19.1407 20.7174 18.8418 21.0104C18.5429 21.3034 18.375 21.7008 18.375 22.1152V22.1152ZM24.75 15.8652C24.75 16.2796 24.9179 16.6771 25.2168 16.9701C25.5157 17.2631 25.9211 17.4277 26.3438 17.4277H48.6562C49.0789 17.4277 49.4843 17.2631 49.7832 16.9701C50.0821 16.6771 50.25 16.2796 50.25 15.8652C50.25 15.4508 50.0821 15.0534 49.7832 14.7604C49.4843 14.4674 49.0789 14.3027 48.6562 14.3027H26.3438C25.9211 14.3027 25.5157 14.4674 25.2168 14.7604C24.9179 15.0534 24.75 15.4508 24.75 15.8652V15.8652ZM33.5634 33.2902C33.3222 33.1424 33.045 33.0606 32.7606 33.0533C32.4762 33.0459 32.195 33.1134 31.9461 33.2486C31.6973 33.3838 31.4899 33.5819 31.3455 33.8222C31.2011 34.0625 31.125 34.3363 31.125 34.6152V50.2402C31.125 50.5192 31.2011 50.793 31.3455 51.0333C31.4899 51.2736 31.6973 51.4717 31.9461 51.6069C32.195 51.7421 32.4762 51.8095 32.7606 51.8022C33.045 51.7949 33.3222 51.7131 33.5634 51.5652L46.3134 43.7527C46.5427 43.6123 46.7317 43.417 46.8627 43.1852C46.9938 42.9534 47.0625 42.6927 47.0625 42.4277C47.0625 42.1627 46.9938 41.9021 46.8627 41.6703C46.7317 41.4385 46.5427 41.2432 46.3134 41.1027L33.5634 33.2902V33.2902Z" fill="#012478"/>
<path d="M16.7812 58.0527C15.5132 58.0527 14.2971 57.5589 13.4004 56.6798C12.5037 55.8007 12 54.6084 12 53.3652V31.4902C12 30.247 12.5037 29.0547 13.4004 28.1757C14.2971 27.2966 15.5132 26.8027 16.7812 26.8027H58.2188C59.4868 26.8027 60.7029 27.2966 61.5996 28.1757C62.4963 29.0547 63 30.247 63 31.4902V53.3652C63 54.6084 62.4963 55.8007 61.5996 56.6798C60.7029 57.5589 59.4868 58.0527 58.2188 58.0527H16.7812ZM58.2188 54.9277C58.6414 54.9277 59.0468 54.7631 59.3457 54.4701C59.6446 54.1771 59.8125 53.7796 59.8125 53.3652V31.4902C59.8125 31.0758 59.6446 30.6784 59.3457 30.3854C59.0468 30.0924 58.6414 29.9277 58.2188 29.9277H16.7812C16.3586 29.9277 15.9532 30.0924 15.6543 30.3854C15.3554 30.6784 15.1875 31.0758 15.1875 31.4902V53.3652C15.1875 53.7796 15.3554 54.1771 15.6543 54.4701C15.9532 54.7631 16.3586 54.9277 16.7812 54.9277H58.2188Z" fill="#012478"/>
</svg>
