<svg width="74" height="75" viewBox="0 0 74 75" fill="none" xmlns="http://www.w3.org/2000/svg">
<circle cx="37" cy="37.7402" r="37" fill="white"/>
<path d="M16.4188 37.4278C16.6925 37.6346 17.0295 37.7447 17.375 37.7403C17.6224 37.7403 17.8665 37.6838 18.0878 37.5753C18.3091 37.4668 18.5016 37.3093 18.65 37.1153C19.6138 35.8565 20.8628 34.8345 22.2985 34.1301C23.7341 33.4256 25.3171 33.0579 26.9226 33.056C28.528 33.0541 30.1119 33.4181 31.5493 34.1191C32.9867 34.8202 34.2382 35.8392 35.2051 37.0957L35.3246 37.2325H35.3445L35.4441 37.3301H35.484L35.5438 37.3887H35.5637C35.6186 37.4344 35.6788 37.4737 35.743 37.5059L35.8027 37.545L35.982 37.6231H36.8785L37.018 37.584H37.0379L37.1973 37.5254H37.2371L37.3367 37.4668L37.3965 37.4278L37.4563 37.3887C37.4615 37.3887 37.4666 37.3867 37.4703 37.383C37.4741 37.3793 37.4762 37.3744 37.4762 37.3692L37.5359 37.3106C37.5713 37.2949 37.5997 37.2671 37.6156 37.2325H37.6555L37.7551 37.1153H37.775C38.74 35.8539 39.9912 34.8301 41.4297 34.125C42.8681 33.4199 44.4543 33.0528 46.0625 33.0528C47.6707 33.0528 49.2569 33.4199 50.6954 34.125C52.1338 34.8301 53.3851 35.8539 54.35 37.1153C54.6068 37.4425 54.9839 37.6583 55.4008 37.7167C55.8176 37.7751 56.2413 37.6714 56.5813 37.4278C56.7487 37.3047 56.8898 37.1504 56.9964 36.9739C57.103 36.7973 57.1731 36.6019 57.2027 36.3987C57.2323 36.1956 57.2208 35.9888 57.1689 35.79C57.117 35.5912 57.0256 35.4044 56.9 35.2403C55.4896 33.3841 53.6075 31.9228 51.4414 31.002C52.6265 29.939 53.4563 28.5498 53.822 27.0164C54.1877 25.483 54.0722 23.8771 53.4906 22.4092C52.909 20.9413 51.8886 19.6799 50.563 18.7906C49.2375 17.9012 47.6687 17.4253 46.0625 17.4253C44.4563 17.4253 42.8875 17.9012 41.562 18.7906C40.2364 19.6799 39.216 20.9413 38.6344 22.4092C38.0528 23.8771 37.9373 25.483 38.303 27.0164C38.6687 28.5498 39.4985 29.939 40.6836 31.002C39.1227 31.6674 37.7035 32.6149 36.5 33.795C35.2965 32.6149 33.8773 31.6674 32.3164 31.002C33.5015 29.939 34.3313 28.5498 34.697 27.0164C35.0627 25.483 34.9472 23.8771 34.3656 22.4092C33.784 20.9413 32.7636 19.6799 31.438 18.7906C30.1125 17.9012 28.5437 17.4253 26.9375 17.4253C25.3313 17.4253 23.7625 17.9012 22.437 18.7906C21.1114 19.6799 20.091 20.9413 19.5094 22.4092C18.9279 23.8771 18.8123 25.483 19.178 27.0164C19.5437 28.5498 20.3735 29.939 21.5586 31.002C19.3925 31.9228 17.5104 33.3841 16.1 35.2403C15.9744 35.4044 15.8831 35.5912 15.8311 35.79C15.7792 35.9888 15.7677 36.1956 15.7973 36.3987C15.8269 36.6019 15.897 36.7973 16.0036 36.9739C16.1103 37.1504 16.2513 37.3047 16.4188 37.4278ZM41.2813 25.2403C41.2813 24.3132 41.5617 23.4069 42.087 22.636C42.6124 21.8652 43.3591 21.2644 44.2328 20.9096C45.1065 20.5548 46.0678 20.462 46.9953 20.6428C47.9228 20.8237 48.7747 21.2702 49.4434 21.9257C50.112 22.5813 50.5674 23.4165 50.7519 24.3258C50.9364 25.2351 50.8417 26.1776 50.4798 27.0341C50.1179 27.8906 49.5051 28.6227 48.7188 29.1378C47.9326 29.6529 47.0081 29.9278 46.0625 29.9278C44.7961 29.9226 43.583 29.4271 42.6874 28.5492C41.7919 27.6712 41.2865 26.4819 41.2813 25.2403V25.2403ZM22.1563 25.2403C22.1563 24.3132 22.4367 23.4069 22.962 22.636C23.4874 21.8652 24.2341 21.2644 25.1078 20.9096C25.9815 20.5548 26.9428 20.462 27.8703 20.6428C28.7978 20.8237 29.6497 21.2702 30.3184 21.9257C30.987 22.5813 31.4424 23.4165 31.6269 24.3258C31.8114 25.2351 31.7167 26.1776 31.3548 27.0341C30.9929 27.8906 30.3801 28.6227 29.5938 29.1378C28.8076 29.6529 27.8831 29.9278 26.9375 29.9278C25.6711 29.9226 24.458 29.4271 23.5624 28.5492C22.6669 27.6712 22.1615 26.4819 22.1563 25.2403V25.2403ZM51.4414 51.3145C52.6265 50.2515 53.4563 48.8623 53.822 47.3289C54.1877 45.7955 54.0722 44.1896 53.4906 42.7217C52.909 41.2538 51.8886 39.9924 50.563 39.1031C49.2375 38.2137 47.6687 37.7378 46.0625 37.7378C44.4563 37.7378 42.8875 38.2137 41.562 39.1031C40.2364 39.9924 39.216 41.2538 38.6344 42.7217C38.0528 44.1896 37.9373 45.7955 38.303 47.3289C38.6687 48.8623 39.4985 50.2515 40.6836 51.3145C39.1227 51.9799 37.7035 52.9274 36.5 54.1075C35.2965 52.9274 33.8773 51.9799 32.3164 51.3145C33.5015 50.2515 34.3313 48.8623 34.697 47.3289C35.0627 45.7955 34.9472 44.1896 34.3656 42.7217C33.784 41.2538 32.7636 39.9924 31.438 39.1031C30.1125 38.2137 28.5437 37.7378 26.9375 37.7378C25.3313 37.7378 23.7625 38.2137 22.437 39.1031C21.1114 39.9924 20.091 41.2538 19.5094 42.7217C18.9279 44.1896 18.8123 45.7955 19.178 47.3289C19.5437 48.8623 20.3735 50.2515 21.5586 51.3145C19.3925 52.2353 17.5104 53.6966 16.1 55.5528C15.8464 55.8843 15.7375 56.301 15.7973 56.7112C15.8571 57.1215 16.0806 57.4916 16.4188 57.7403C16.6925 57.9471 17.0295 58.0572 17.375 58.0528C17.6224 58.0528 17.8665 57.9963 18.0878 57.8878C18.3091 57.7793 18.5016 57.6218 18.65 57.4278C19.6138 56.169 20.8628 55.147 22.2985 54.4426C23.7341 53.7381 25.3171 53.3704 26.9226 53.3685C28.528 53.3666 30.1119 53.7306 31.5493 54.4316C32.9867 55.1327 34.2382 56.1517 35.2051 57.4082L35.3246 57.545H35.3445L35.4441 57.6426H35.484L35.5438 57.7012H35.5637L35.743 57.8184L35.8027 57.8575L35.982 57.9356H36.8785L37.018 57.8965H37.0379L37.1973 57.8379H37.2371L37.3367 57.7793L37.3965 57.7403L37.4563 57.7012H37.4762L37.5359 57.6426C37.5713 57.627 37.5997 57.5992 37.6156 57.5645H37.6555L37.7551 57.4473H37.775C38.74 56.1859 39.9912 55.1622 41.4297 54.457C42.8681 53.7519 44.4543 53.3848 46.0625 53.3848C47.6707 53.3848 49.2569 53.7519 50.6954 54.457C52.1338 55.1622 53.3851 56.1859 54.35 57.4473C54.6068 57.7745 54.9839 57.9904 55.4008 58.0488C55.8176 58.1071 56.2413 58.0034 56.5813 57.7598C56.7487 57.6367 56.8898 57.4824 56.9964 57.3059C57.103 57.1293 57.1731 56.9339 57.2027 56.7308C57.2323 56.5276 57.2208 56.3208 57.1689 56.122C57.117 55.9232 57.0256 55.7365 56.9 55.5723C55.4921 53.7089 53.6098 52.2407 51.4414 51.3145V51.3145ZM22.1563 45.5528C22.1563 44.6257 22.4367 43.7194 22.962 42.9485C23.4874 42.1777 24.2341 41.5769 25.1078 41.2221C25.9815 40.8673 26.9428 40.7745 27.8703 40.9553C28.7978 41.1362 29.6497 41.5827 30.3184 42.2382C30.987 42.8938 31.4424 43.729 31.6269 44.6383C31.8114 45.5476 31.7167 46.4901 31.3548 47.3466C30.9929 48.2031 30.3801 48.9352 29.5938 49.4503C28.8076 49.9654 27.8831 50.2403 26.9375 50.2403C25.6711 50.2351 24.458 49.7396 23.5624 48.8617C22.6669 47.9837 22.1615 46.7944 22.1563 45.5528V45.5528ZM41.2813 45.5528C41.2813 44.6257 41.5617 43.7194 42.087 42.9485C42.6124 42.1777 43.3591 41.5769 44.2328 41.2221C45.1065 40.8673 46.0678 40.7745 46.9953 40.9553C47.9228 41.1362 48.7747 41.5827 49.4434 42.2382C50.112 42.8938 50.5674 43.729 50.7519 44.6383C50.9364 45.5476 50.8417 46.4901 50.4798 47.3466C50.1179 48.2031 49.5051 48.9352 48.7188 49.4503C47.9326 49.9654 47.0081 50.2403 46.0625 50.2403C44.7961 50.2351 43.583 49.7396 42.6874 48.8617C41.7919 47.9837 41.2865 46.7944 41.2813 45.5528Z" fill="#012478"/>
</svg>
